<svg width="60" height="60" viewBox="0 0 60 60" fill="none" xmlns="http://www.w3.org/2000/svg">
<path fill-rule="evenodd" clip-rule="evenodd" d="M12.25 5H11.5V5.75V11.5H5.75H5V12.25V47.25V48H5.75H20.7211L33.7499 55.6415L34.8794 56.3039V54.9945V48H47.75H48.5V47.25V40.5H54.25H55V39.75V5.75V5H54.25H12.25ZM48.5 39H53.5V6.5H13V11.5H47.75H48.5V12.25V39ZM47 13V46.5H34.1294H33.3794V47.25V53.6852L21.3043 46.6031L21.1285 46.5H20.9248H6.5V13H47ZM14.5 25H13.75V26.5H14.5H39H39.75V25H39H14.5ZM14.5 32.5H13.75V34H14.5H30H30.75V32.5H30H14.5Z" fill="black"/>
</svg>
